<?xml version="1.0" encoding="utf-8"?>
<!-- Generator: Adobe Illustrator 19.0.0, SVG Export Plug-In . SVG Version: 6.00 Build 0)  -->
<svg version="1.1" id="Calque_2" xmlns="http://www.w3.org/2000/svg" xmlns:xlink="http://www.w3.org/1999/xlink" x="0px" y="0px"
	 viewBox="0 0 500 140.4" style="enable-background:new 0 0 500 140.4;" xml:space="preserve">
<style type="text/css">
	.st0{fill:#FFFFFF;}
</style>
<path id="XMLID_3_" class="st0" d="M356.8,42.7H376l27.4,75.6c0,0,30.5-71.1,63.9-75.8H500c-46.6,0-91.2,97.9-91.2,97.9h-14.4
	L356.8,42.7z"/>
<path id="XMLID_13_" class="st0" d="M220.3,73.7c-1-6.3-2.8-12.4-5.9-18c-1.7-3.1-3.6-5.9-6.2-8.3c-4.6-4.3-10-7.3-15.9-9.4
	c-6.2-2.2-12.7-3-20-3c-2.3-0.1-5.2,0.1-8.1,0.5c-6.2,0.8-12,2.5-17.5,5.5c-3.8,2.1-7.4,4.4-10.3,7.6c-4.4,4.8-7.1,10.5-9,16.7
	c-2.1,6.8-2.8,13.8-2.9,20.8c-0.1,3.7,0.1,7.3,0.5,11c0.6,5.8,1.7,11.5,3.9,17c2.2,5.6,5.2,10.7,9.7,14.7c3.8,3.4,8.2,5.9,12.9,7.8
	c6.9,2.8,14.2,3.8,21.6,3.8c3.2,0,6.4-0.2,9.6-0.7c6.5-0.9,12.5-3,18.1-6.3c3.5-2.1,6.9-4.5,9.5-7.7c3.3-3.9,5.6-8.4,7.3-13.2
	c2.5-7,3.4-14.3,3.7-21.7C221.5,85,221.2,79.3,220.3,73.7z M202.1,92.8c-0.3,5.2-0.9,10.4-2.7,15.4c-1.2,3.2-2.7,6.2-5.3,8.5
	c-3.5,3.2-7.7,5.3-12.4,6.1c-4.7,0.8-9.5,0.8-14.2,0.4c-3.6-0.3-7-1-10.2-2.7c-5.6-2.9-9.3-7.3-11.1-13.4c-1.2-3.9-1.8-7.9-2.2-12
	c-0.1-0.6-0.1-1.3-0.1-1.9c-0.1-1.9-0.1-3.8-0.1-5.7c0-1.9,0-3.9,0.1-5.8c0.1-2,0.3-4.1,0.6-6.1c0.2-1.3,0.4-2.6,0.7-3.9
	c0.7-3.2,1.7-6.4,3.5-9.3c3-4.9,7.5-7.9,12.9-9.5c4.9-1.4,9.9-1.5,15-1.2c2.7,0.1,5.4,0.5,8.1,1.2c3.1,0.9,5.8,2.5,8.3,4.4
	c3.8,2.9,5.8,7,7.1,11.5c1.2,4,1.7,8.1,2,12.3C202.3,85.2,202.3,89,202.1,92.8z"/>
<polygon id="XMLID_5_" class="st0" points="124.7,-0.2 101.2,-0.2 62.3,57.4 23.5,-0.2 0,-0.2 52.7,77.7 52.6,140.4 72.1,140.4 
	72,77.7 "/>
<path id="XMLID_2_" class="st0" d="M338.3,73.7c-1-6.3-2.8-12.4-5.9-18c-1.7-3.1-3.6-5.9-6.2-8.3c-4.6-4.3-10-7.3-15.9-9.4
	c-6.2-2.2-12.7-3-20-3c-2.3-0.1-5.2,0.1-8.1,0.5c-6.2,0.8-12,2.5-17.5,5.5c-3.8,2.1-7.4,4.4-10.3,7.6c-4.4,4.8-7.1,10.5-9,16.7
	c-2.1,6.8-2.8,13.8-2.9,20.8c-0.1,3.7,0.1,7.3,0.5,11c0.6,5.8,1.7,11.5,3.9,17c2.2,5.6,5.2,10.7,9.7,14.7c3.8,3.4,8.2,5.9,12.9,7.8
	c6.9,2.8,14.2,3.8,21.6,3.8c3.2,0,6.4-0.2,9.6-0.7c6.5-0.9,12.5-3,18.1-6.3c3.5-2.1,6.9-4.5,9.5-7.7c3.3-3.9,5.6-8.4,7.3-13.2
	c2.5-7,3.4-14.3,3.7-21.7C339.4,85,339.2,79.3,338.3,73.7z M320,92.8c-0.3,5.2-0.9,10.4-2.7,15.4c-1.2,3.2-2.7,6.2-5.3,8.5
	c-3.5,3.2-7.7,5.3-12.4,6.1c-4.7,0.8-9.5,0.8-14.2,0.4c-3.6-0.3-7-1-10.2-2.7c-5.6-2.9-9.3-7.3-11.1-13.4c-1.2-3.9-1.8-7.9-2.2-12
	c-0.1-0.6-0.1-1.3-0.1-1.9c-0.1-1.9-0.1-3.8-0.1-5.7c0-1.9,0-3.9,0.1-5.8c0.1-2,0.3-4.1,0.6-6.1c0.2-1.3,0.4-2.6,0.7-3.9
	c0.7-3.2,1.7-6.4,3.5-9.3c3-4.9,7.5-7.9,12.9-9.5c4.9-1.4,9.9-1.5,15-1.2c2.7,0.1,5.4,0.5,8.1,1.2c3.1,0.9,5.8,2.5,8.3,4.4
	c3.8,2.9,5.8,7,7.1,11.5c1.2,4,1.7,8.1,2,12.3C320.2,85.2,320.2,89,320,92.8z"/>
</svg>
